<svg version="1.1" xmlns="http://www.w3.org/2000/svg" xmlns:xlink="http://www.w3.org/1999/xlink" width="1072" height="456"><defs/><g><g transform="translate(-158,-110) scale(1,1)"><path fill="#C0C0C0" stroke="none" d="M 421 138.5 C 421 132.1487248 426.1487248 127 432.5 127 C 438.8512752 127 444 132.1487248 444 138.5 C 444 144.8512752 438.8512752 150 432.5 150 C 426.1487248 150 421 144.8512752 421 138.5 Z" opacity="0.2"/></g><g transform="translate(-158,-110) scale(1,1)"><path fill="#ffffff" stroke="none" d="M 414 131.5 C 414 125.1487248 419.1487248 120 425.5 120 C 431.8512752 120 437 125.1487248 437 131.5 C 437 137.8512752 431.8512752 143 425.5 143 C 419.1487248 143 414 137.8512752 414 131.5 Z"/></g><g transform="translate(-158,-110) scale(1,1)"><path fill="none" stroke="#000000" d="M 414 131.5 C 414 125.1487248 419.1487248 120 425.5 120 C 431.8512752 120 437 125.1487248 437 131.5 C 437 137.8512752 431.8512752 143 425.5 143 C 419.1487248 143 414 137.8512752 414 131.5 Z" stroke-miterlimit="10"/></g><g transform="translate(-158,-110) scale(1,1)"><g><path fill="none" stroke="none"/><text fill="#000000" stroke="none" font-family="Arial" font-size="13px" font-style="normal" font-weight="bold" text-decoration="none" x="383" y="162.5">CharSequence</text></g></g><g transform="translate(-158,-110) scale(1,1)"><path fill="#C0C0C0" stroke="none" d="M 198 218.5 C 198 212.1487248 203.1487248 207 209.5 207 C 215.8512752 207 221 212.1487248 221 218.5 C 221 224.8512752 215.8512752 230 209.5 230 C 203.1487248 230 198 224.8512752 198 218.5 Z" opacity="0.2"/></g><g transform="translate(-158,-110) scale(1,1)"><path fill="#ffffff" stroke="none" d="M 191 211.5 C 191 205.1487248 196.1487248 200 202.5 200 C 208.8512752 200 214 205.1487248 214 211.5 C 214 217.8512752 208.8512752 223 202.5 223 C 196.1487248 223 191 217.8512752 191 211.5 Z"/></g><g transform="translate(-158,-110) scale(1,1)"><path fill="none" stroke="#000000" d="M 191 211.5 C 191 205.1487248 196.1487248 200 202.5 200 C 208.8512752 200 214 205.1487248 214 211.5 C 214 217.8512752 208.8512752 223 202.5 223 C 196.1487248 223 191 217.8512752 191 211.5 Z" stroke-miterlimit="10"/></g><g transform="translate(-158,-110) scale(1,1)"><g><path fill="none" stroke="none"/><text fill="#000000" stroke="none" font-family="Arial" font-size="13px" font-style="normal" font-weight="bold" text-decoration="none" x="175" y="242.5">GetChars</text></g></g><g transform="translate(-158,-110) scale(1,1)"><path fill="none" stroke="#000000" d="M 238 211 L 375 162" stroke-miterlimit="10"/></g><g transform="translate(-158,-110) scale(1,1)"><path fill="#FFFFFF" stroke="none" d="M 358.69722215282684 176.77225217987157 L 375 162 L 353.0266355423011 160.917754921871"/></g><g transform="translate(-158,-110) scale(1,1)"><path fill="none" stroke="#000000" d="M 358.69722215282684 176.77225217987157 L 375 162 L 353.0266355423011 160.917754921871 L 358.69722215282684 176.77225217987157" stroke-miterlimit="10"/></g><g transform="translate(-158,-110) scale(1,1)"><rect fill="#C0C0C0" stroke="none" x="175" y="303" width="143" height="44" opacity="0.2"/></g><g transform="translate(-158,-110) scale(1,1)"><rect fill="#ffffff" stroke="none" x="168" y="296" width="143" height="44"/></g><g transform="translate(-158,-110) scale(1,1)"><path fill="none" stroke="#000000" d="M 168 296 L 311 296 L 311 340 L 168 340 L 168 296 Z Z" stroke-miterlimit="10"/></g><g transform="translate(-158,-110) scale(1,1)"><path fill="none" stroke="#000000" d="M 168 321 L 311 321" stroke-miterlimit="10"/></g><g transform="translate(-158,-110) scale(1,1)"><path fill="none" stroke="#000000" d="M 168 331 L 311 331" stroke-miterlimit="10"/></g><g transform="translate(-158,-110) scale(1,1)"><g><path fill="none" stroke="none"/><text fill="#000000" stroke="none" font-family="Arial" font-size="13px" font-style="normal" font-weight="bold" text-decoration="none" x="176.5" y="315.5">AlteredCharSequence</text></g></g><g transform="translate(-158,-110) scale(1,1)"><path fill="none" stroke="#ff0000" d="M 230 295 L 205.1578947368421 223" stroke-miterlimit="10"/></g><g transform="translate(-158,-110) scale(1,1)"><path fill="#C0C0C0" stroke="none" d="M 486 218.5 C 486 212.1487248 491.1487248 207 497.5 207 C 503.8512752 207 509 212.1487248 509 218.5 C 509 224.8512752 503.8512752 230 497.5 230 C 491.1487248 230 486 224.8512752 486 218.5 Z" opacity="0.2"/></g><g transform="translate(-158,-110) scale(1,1)"><path fill="#ffffff" stroke="none" d="M 479 211.5 C 479 205.1487248 484.1487248 200 490.5 200 C 496.8512752 200 502 205.1487248 502 211.5 C 502 217.8512752 496.8512752 223 490.5 223 C 484.1487248 223 479 217.8512752 479 211.5 Z"/></g><g transform="translate(-158,-110) scale(1,1)"><path fill="none" stroke="#000000" d="M 479 211.5 C 479 205.1487248 484.1487248 200 490.5 200 C 496.8512752 200 502 205.1487248 502 211.5 C 502 217.8512752 496.8512752 223 490.5 223 C 484.1487248 223 479 217.8512752 479 211.5 Z" stroke-miterlimit="10"/></g><g transform="translate(-158,-110) scale(1,1)"><g><path fill="none" stroke="none"/><text fill="#000000" stroke="none" font-family="Arial" font-size="13px" font-style="normal" font-weight="bold" text-decoration="none" x="465" y="242.5">Spanned</text></g></g><g transform="translate(-158,-110) scale(1,1)"><path fill="none" stroke="#000000" d="M 470 199 L 445 169" stroke-miterlimit="10"/></g><g transform="translate(-158,-110) scale(1,1)"><path fill="#FFFFFF" stroke="none" d="M 464.4796540394558 179.2246309714881 L 445 169 L 451.5442895713979 190.00410136153636"/></g><g transform="translate(-158,-110) scale(1,1)"><path fill="none" stroke="#000000" d="M 464.4796540394558 179.2246309714881 L 445 169 L 451.5442895713979 190.00410136153636 L 464.4796540394558 179.2246309714881" stroke-miterlimit="10"/></g><g transform="translate(-158,-110) scale(1,1)"><rect fill="#C0C0C0" stroke="none" x="175" y="407" width="246" height="44" opacity="0.2"/></g><g transform="translate(-158,-110) scale(1,1)"><rect fill="#ffffff" stroke="none" x="168" y="400" width="246" height="44"/></g><g transform="translate(-158,-110) scale(1,1)"><path fill="none" stroke="#000000" d="M 168 400 L 414 400 L 414 444 L 168 444 L 168 400 Z Z" stroke-miterlimit="10"/></g><g transform="translate(-158,-110) scale(1,1)"><path fill="none" stroke="#000000" d="M 168 425 L 414 425" stroke-miterlimit="10"/></g><g transform="translate(-158,-110) scale(1,1)"><path fill="none" stroke="#000000" d="M 168 435 L 414 435" stroke-miterlimit="10"/></g><g transform="translate(-158,-110) scale(1,1)"><g><path fill="none" stroke="none"/><text fill="#000000" stroke="none" font-family="Arial" font-size="13px" font-style="normal" font-weight="bold" text-decoration="none" x="180" y="419.5">AlteredCharSequence.AlteredSpanned</text></g></g><g transform="translate(-158,-110) scale(1,1)"><path fill="none" stroke="#000000" d="M 280 399 L 251 341" stroke-miterlimit="10"/></g><g transform="translate(-158,-110) scale(1,1)"><path fill="#FFFFFF" stroke="none" d="M 267.6199870099055 355.41443830992284 L 251 341 L 252.55955844199494 362.9446525938781"/></g><g transform="translate(-158,-110) scale(1,1)"><path fill="none" stroke="#000000" d="M 267.6199870099055 355.41443830992284 L 251 341 L 252.55955844199494 362.9446525938781 L 267.6199870099055 355.41443830992284" stroke-miterlimit="10"/></g><g transform="translate(-158,-110) scale(1,1)"><path fill="none" stroke="#ff0000" d="M 314 399 L 482.10526315789474 223" stroke-miterlimit="10"/></g><g transform="translate(-158,-110) scale(1,1)"><path fill="#C0C0C0" stroke="none" d="M 617 314.5 C 617 308.1487248 622.1487248 303 628.5 303 C 634.8512752 303 640 308.1487248 640 314.5 C 640 320.8512752 634.8512752 326 628.5 326 C 622.1487248 326 617 320.8512752 617 314.5 Z" opacity="0.2"/></g><g transform="translate(-158,-110) scale(1,1)"><path fill="#ffffff" stroke="none" d="M 610 307.5 C 610 301.1487248 615.1487248 296 621.5 296 C 627.8512752 296 633 301.1487248 633 307.5 C 633 313.8512752 627.8512752 319 621.5 319 C 615.1487248 319 610 313.8512752 610 307.5 Z"/></g><g transform="translate(-158,-110) scale(1,1)"><path fill="none" stroke="#000000" d="M 610 307.5 C 610 301.1487248 615.1487248 296 621.5 296 C 627.8512752 296 633 301.1487248 633 307.5 C 633 313.8512752 627.8512752 319 621.5 319 C 615.1487248 319 610 313.8512752 610 307.5 Z" stroke-miterlimit="10"/></g><g transform="translate(-158,-110) scale(1,1)"><g><path fill="none" stroke="none"/><text fill="#000000" stroke="none" font-family="Arial" font-size="13px" font-style="normal" font-weight="bold" text-decoration="none" x="591" y="338.5">Spannable</text></g></g><g transform="translate(-158,-110) scale(1,1)"><path fill="none" stroke="#000000" d="M 587 295 L 524 249" stroke-miterlimit="10"/></g><g transform="translate(-158,-110) scale(1,1)"><path fill="#FFFFFF" stroke="none" d="M 545.3799438502967 254.1863282732737 L 524 249 L 535.4506153864411 267.7851911694238"/></g><g transform="translate(-158,-110) scale(1,1)"><path fill="none" stroke="#000000" d="M 545.3799438502967 254.1863282732737 L 524 249 L 535.4506153864411 267.7851911694238 L 545.3799438502967 254.1863282732737" stroke-miterlimit="10"/></g><g transform="translate(-158,-110) scale(1,1)"><rect fill="#C0C0C0" stroke="none" x="447" y="303" width="125" height="44" opacity="0.2"/></g><g transform="translate(-158,-110) scale(1,1)"><rect fill="#ffffff" stroke="none" x="440" y="296" width="125" height="44"/></g><g transform="translate(-158,-110) scale(1,1)"><path fill="none" stroke="#000000" d="M 440 296 L 565 296 L 565 340 L 440 340 L 440 296 Z Z" stroke-miterlimit="10"/></g><g transform="translate(-158,-110) scale(1,1)"><path fill="none" stroke="#000000" d="M 440 321 L 565 321" stroke-miterlimit="10"/></g><g transform="translate(-158,-110) scale(1,1)"><path fill="none" stroke="#000000" d="M 440 331 L 565 331" stroke-miterlimit="10"/></g><g transform="translate(-158,-110) scale(1,1)"><g><path fill="none" stroke="none"/><text fill="#000000" stroke="none" font-family="Arial" font-size="13px" font-style="normal" font-weight="bold" text-decoration="none" x="448" y="315.5">Spannable.Factory</text></g></g><g transform="translate(-158,-110) scale(1,1)"><rect fill="#C0C0C0" stroke="none" x="591" y="407" width="113" height="44" opacity="0.2"/></g><g transform="translate(-158,-110) scale(1,1)"><rect fill="#ffffff" stroke="none" x="584" y="400" width="113" height="44"/></g><g transform="translate(-158,-110) scale(1,1)"><path fill="none" stroke="#000000" d="M 584 400 L 697 400 L 697 444 L 584 444 L 584 400 Z Z" stroke-miterlimit="10"/></g><g transform="translate(-158,-110) scale(1,1)"><path fill="none" stroke="#000000" d="M 584 425 L 697 425" stroke-miterlimit="10"/></g><g transform="translate(-158,-110) scale(1,1)"><path fill="none" stroke="#000000" d="M 584 435 L 697 435" stroke-miterlimit="10"/></g><g transform="translate(-158,-110) scale(1,1)"><g><path fill="none" stroke="none"/><text fill="#000000" stroke="none" font-family="Arial" font-size="13px" font-style="normal" font-weight="bold" text-decoration="none" x="593" y="419.5">SpannableString</text></g></g><g transform="translate(-158,-110) scale(1,1)"><path fill="none" stroke="#ff0000" d="M 636 399 L 622.578947368421 319" stroke-miterlimit="10"/></g><g transform="translate(-158,-110) scale(1,1)"><path fill="none" stroke="#ff0000" d="M 589 399 L 214 220.66666666666666" stroke-miterlimit="10"/></g><g transform="translate(-158,-110) scale(1,1)"><path fill="none" stroke="#ff0000" d="M 622 399 L 431 143" stroke-miterlimit="10"/></g><g transform="translate(-158,-110) scale(1,1)"><rect fill="#C0C0C0" stroke="none" x="591" y="519" width="160" height="44" opacity="0.2"/></g><g transform="translate(-158,-110) scale(1,1)"><rect fill="#ffffff" stroke="none" x="584" y="512" width="160" height="44"/></g><g transform="translate(-158,-110) scale(1,1)"><path fill="none" stroke="#000000" d="M 584 512 L 744 512 L 744 556 L 584 556 L 584 512 Z Z" stroke-miterlimit="10"/></g><g transform="translate(-158,-110) scale(1,1)"><path fill="none" stroke="#000000" d="M 584 537 L 744 537" stroke-miterlimit="10"/></g><g transform="translate(-158,-110) scale(1,1)"><path fill="none" stroke="#000000" d="M 584 547 L 744 547" stroke-miterlimit="10"/></g><g transform="translate(-158,-110) scale(1,1)"><g><path fill="none" stroke="none"/><text fill="#000000" stroke="none" font-family="Arial" font-size="13px" font-style="italic" font-weight="bold" text-decoration="none" x="595" y="531.5">SpannableStringInternal</text></g></g><g transform="translate(-158,-110) scale(1,1)"><path fill="none" stroke="#000000" d="M 645 445 L 659 511" stroke-miterlimit="10"/></g><g transform="translate(-158,-110) scale(1,1)"><path fill="#FFFFFF" stroke="none" d="M 646.5466165594786 492.8640346029403 L 659 511 L 663.0181922361165 489.3700640048656"/></g><g transform="translate(-158,-110) scale(1,1)"><path fill="none" stroke="#000000" d="M 646.5466165594786 492.8640346029403 L 659 511 L 663.0181922361165 489.3700640048656 L 646.5466165594786 492.8640346029403" stroke-miterlimit="10"/></g><g transform="translate(-158,-110) scale(1,1)"><rect fill="#C0C0C0" stroke="none" x="759" y="407" width="158" height="44" opacity="0.2"/></g><g transform="translate(-158,-110) scale(1,1)"><rect fill="#ffffff" stroke="none" x="752" y="400" width="158" height="44"/></g><g transform="translate(-158,-110) scale(1,1)"><path fill="none" stroke="#000000" d="M 752 400 L 910 400 L 910 444 L 752 444 L 752 400 Z Z" stroke-miterlimit="10"/></g><g transform="translate(-158,-110) scale(1,1)"><path fill="none" stroke="#000000" d="M 752 425 L 910 425" stroke-miterlimit="10"/></g><g transform="translate(-158,-110) scale(1,1)"><path fill="none" stroke="#000000" d="M 752 435 L 910 435" stroke-miterlimit="10"/></g><g transform="translate(-158,-110) scale(1,1)"><g><path fill="none" stroke="none"/><text fill="#000000" stroke="none" font-family="Arial" font-size="13px" font-style="normal" font-weight="bold" text-decoration="none" x="763.5" y="419.5">SpannableStringBuilder</text></g></g><g transform="translate(-158,-110) scale(1,1)"><path fill="none" stroke="#ff0000" d="M 784 399 L 633 316.84615384615387" stroke-miterlimit="10"/></g><g transform="translate(-158,-110) scale(1,1)"><path fill="none" stroke="#ff0000" d="M 797 399 L 436.6842105263158 143" stroke-miterlimit="10"/></g><g transform="translate(-158,-110) scale(1,1)"><path fill="none" stroke="#ff0000" d="M 758 399 L 214 219" stroke-miterlimit="10"/></g><g transform="translate(-158,-110) scale(1,1)"><path fill="#C0C0C0" stroke="none" d="M 742 314.5 C 742 308.1487248 747.1487248 303 753.5 303 C 759.8512752 303 765 308.1487248 765 314.5 C 765 320.8512752 759.8512752 326 753.5 326 C 747.1487248 326 742 320.8512752 742 314.5 Z" opacity="0.2"/></g><g transform="translate(-158,-110) scale(1,1)"><path fill="#ffffff" stroke="none" d="M 735 307.5 C 735 301.1487248 740.1487248 296 746.5 296 C 752.8512752 296 758 301.1487248 758 307.5 C 758 313.8512752 752.8512752 319 746.5 319 C 740.1487248 319 735 313.8512752 735 307.5 Z"/></g><g transform="translate(-158,-110) scale(1,1)"><path fill="none" stroke="#000000" d="M 735 307.5 C 735 301.1487248 740.1487248 296 746.5 296 C 752.8512752 296 758 301.1487248 758 307.5 C 758 313.8512752 752.8512752 319 746.5 319 C 740.1487248 319 735 313.8512752 735 307.5 Z" stroke-miterlimit="10"/></g><g transform="translate(-158,-110) scale(1,1)"><g><path fill="none" stroke="none"/><text fill="#000000" stroke="none" font-family="Arial" font-size="13px" font-style="normal" font-weight="bold" text-decoration="none" x="723" y="338.5">Editable</text></g></g><g transform="translate(-158,-110) scale(1,1)"><path fill="none" stroke="#000000" d="M 711 320 L 660 320" stroke-miterlimit="10"/></g><g transform="translate(-158,-110) scale(1,1)"><path fill="#FFFFFF" stroke="none" d="M 680.3253497152483 311.580964487968 L 660 320 L 680.3253497152483 328.419035512032"/></g><g transform="translate(-158,-110) scale(1,1)"><path fill="none" stroke="#000000" d="M 680.3253497152483 311.580964487968 L 660 320 L 680.3253497152483 328.419035512032 L 680.3253497152483 311.580964487968" stroke-miterlimit="10"/></g><g transform="translate(-158,-110) scale(1,1)"><path fill="none" stroke="#000000" d="M 711 314 L 238 230" stroke-miterlimit="10"/></g><g transform="translate(-158,-110) scale(1,1)"><path fill="#FFFFFF" stroke="none" d="M 259.4843268426454 225.2646330534597 L 238 230 L 256.540123278968 241.84330312035746"/></g><g transform="translate(-158,-110) scale(1,1)"><path fill="none" stroke="#000000" d="M 259.4843268426454 225.2646330534597 L 238 230 L 256.540123278968 241.84330312035746 L 259.4843268426454 225.2646330534597" stroke-miterlimit="10"/></g><g transform="translate(-158,-110) scale(1,1)"><path fill="none" stroke="#000000" d="M 711 301 L 471 169" stroke-miterlimit="10"/></g><g transform="translate(-158,-110) scale(1,1)"><path fill="#FFFFFF" stroke="none" d="M 492.86668583816277 171.41827427209824 L 471 169 L 484.7521037016711 186.17205997481037"/></g><g transform="translate(-158,-110) scale(1,1)"><path fill="none" stroke="#000000" d="M 492.86668583816277 171.41827427209824 L 471 169 L 484.7521037016711 186.17205997481037 L 492.86668583816277 171.41827427209824" stroke-miterlimit="10"/></g><g transform="translate(-158,-110) scale(1,1)"><path fill="#C0C0C0" stroke="none" d="M 685 138.5 C 685 132.1487248 690.1487248 127 696.5 127 C 702.8512752 127 708 132.1487248 708 138.5 C 708 144.8512752 702.8512752 150 696.5 150 C 690.1487248 150 685 144.8512752 685 138.5 Z" opacity="0.2"/></g><g transform="translate(-158,-110) scale(1,1)"><path fill="#ffffff" stroke="none" d="M 678 131.5 C 678 125.1487248 683.1487248 120 689.5 120 C 695.8512752 120 701 125.1487248 701 131.5 C 701 137.8512752 695.8512752 143 689.5 143 C 683.1487248 143 678 137.8512752 678 131.5 Z"/></g><g transform="translate(-158,-110) scale(1,1)"><path fill="none" stroke="#000000" d="M 678 131.5 C 678 125.1487248 683.1487248 120 689.5 120 C 695.8512752 120 701 125.1487248 701 131.5 C 701 137.8512752 695.8512752 143 689.5 143 C 683.1487248 143 678 137.8512752 678 131.5 Z" stroke-miterlimit="10"/></g><g transform="translate(-158,-110) scale(1,1)"><g><path fill="none" stroke="none"/><text fill="#000000" stroke="none" font-family="Arial" font-size="13px" font-style="normal" font-weight="bold" text-decoration="none" x="655.5" y="162.5">Appendable</text></g></g><g transform="translate(-158,-110) scale(1,1)"><path fill="none" stroke="#000000" d="M 738 295 L 697 169" stroke-miterlimit="10"/></g><g transform="translate(-158,-110) scale(1,1)"><path fill="#FFFFFF" stroke="none" d="M 711.2950743812498 185.72276437777361 L 697 169 L 695.2833639408393 190.93292412425643"/></g><g transform="translate(-158,-110) scale(1,1)"><path fill="none" stroke="#000000" d="M 711.2950743812498 185.72276437777361 L 697 169 L 695.2833639408393 190.93292412425643 L 711.2950743812498 185.72276437777361" stroke-miterlimit="10"/></g><g transform="translate(-158,-110) scale(1,1)"><path fill="#C0C0C0" stroke="none" d="M 894 314.5 C 894 308.1487248 899.1487248 303 905.5 303 C 911.8512752 303 917 308.1487248 917 314.5 C 917 320.8512752 911.8512752 326 905.5 326 C 899.1487248 326 894 320.8512752 894 314.5 Z" opacity="0.2"/></g><g transform="translate(-158,-110) scale(1,1)"><path fill="#ffffff" stroke="none" d="M 887 307.5 C 887 301.1487248 892.1487248 296 898.5 296 C 904.8512752 296 910 301.1487248 910 307.5 C 910 313.8512752 904.8512752 319 898.5 319 C 892.1487248 319 887 313.8512752 887 307.5 Z"/></g><g transform="translate(-158,-110) scale(1,1)"><path fill="none" stroke="#000000" d="M 887 307.5 C 887 301.1487248 892.1487248 296 898.5 296 C 904.8512752 296 910 301.1487248 910 307.5 C 910 313.8512752 904.8512752 319 898.5 319 C 892.1487248 319 887 313.8512752 887 307.5 Z" stroke-miterlimit="10"/></g><g transform="translate(-158,-110) scale(1,1)"><g><path fill="none" stroke="none"/><text fill="#000000" stroke="none" font-family="Arial" font-size="13px" font-style="normal" font-weight="bold" text-decoration="none" x="841" y="338.5">GraphicsOperations</text></g></g><g transform="translate(-158,-110) scale(1,1)"><path fill="none" stroke="#ff0000" d="M 812 399 L 752.6315789473684 319" stroke-miterlimit="10"/></g><g transform="translate(-158,-110) scale(1,1)"><path fill="none" stroke="#ff0000" d="M 819 399 L 693.1052631578947 143" stroke-miterlimit="10"/></g><g transform="translate(-158,-110) scale(1,1)"><path fill="none" stroke="#ff0000" d="M 846 399 L 892.9473684210526 319" stroke-miterlimit="10"/></g><g transform="translate(-158,-110) scale(1,1)"><rect fill="#C0C0C0" stroke="none" x="959" y="407" width="50" height="44" opacity="0.2"/></g><g transform="translate(-158,-110) scale(1,1)"><rect fill="#ffffff" stroke="none" x="952" y="400" width="50" height="44"/></g><g transform="translate(-158,-110) scale(1,1)"><path fill="none" stroke="#000000" d="M 952 400 L 1002 400 L 1002 444 L 952 444 L 952 400 Z Z" stroke-miterlimit="10"/></g><g transform="translate(-158,-110) scale(1,1)"><path fill="none" stroke="#000000" d="M 952 425 L 1002 425" stroke-miterlimit="10"/></g><g transform="translate(-158,-110) scale(1,1)"><path fill="none" stroke="#000000" d="M 952 435 L 1002 435" stroke-miterlimit="10"/></g><g transform="translate(-158,-110) scale(1,1)"><g><path fill="none" stroke="none"/><text fill="#000000" stroke="none" font-family="Arial" font-size="13px" font-style="normal" font-weight="bold" text-decoration="none" x="960" y="419.5">String</text></g></g><g transform="translate(-158,-110) scale(1,1)"><path fill="none" stroke="#ff0000" d="M 951 409 L 437 140.12" stroke-miterlimit="10"/></g><g transform="translate(-158,-110) scale(1,1)"><path fill="#C0C0C0" stroke="none" d="M 844.5 138.5 C 844.5 132.1487248 849.6487248 127 856 127 C 862.3512752 127 867.5 132.1487248 867.5 138.5 C 867.5 144.8512752 862.3512752 150 856 150 C 849.6487248 150 844.5 144.8512752 844.5 138.5 Z" opacity="0.2"/></g><g transform="translate(-158,-110) scale(1,1)"><path fill="#ffffff" stroke="none" d="M 837.5 131.5 C 837.5 125.1487248 842.6487248 120 849 120 C 855.3512752 120 860.5 125.1487248 860.5 131.5 C 860.5 137.8512752 855.3512752 143 849 143 C 842.6487248 143 837.5 137.8512752 837.5 131.5 Z"/></g><g transform="translate(-158,-110) scale(1,1)"><path fill="none" stroke="#000000" d="M 837.5 131.5 C 837.5 125.1487248 842.6487248 120 849 120 C 855.3512752 120 860.5 125.1487248 860.5 131.5 C 860.5 137.8512752 855.3512752 143 849 143 C 842.6487248 143 837.5 137.8512752 837.5 131.5 Z" stroke-miterlimit="10"/></g><g transform="translate(-158,-110) scale(1,1)"><g><path fill="none" stroke="none"/><text fill="#000000" stroke="none" font-family="Arial" font-size="13px" font-style="normal" font-weight="bold" text-decoration="none" x="815.5" y="162.5">Serializable</text></g></g><g transform="translate(-158,-110) scale(1,1)"><path fill="#C0C0C0" stroke="none" d="M 997.5 138.5 C 997.5 132.1487248 1002.6487248 127 1009 127 C 1015.3512752 127 1020.5 132.1487248 1020.5 138.5 C 1020.5 144.8512752 1015.3512752 150 1009 150 C 1002.6487248 150 997.5 144.8512752 997.5 138.5 Z" opacity="0.2"/></g><g transform="translate(-158,-110) scale(1,1)"><path fill="#ffffff" stroke="none" d="M 990.5 131.5 C 990.5 125.1487248 995.6487248 120 1002 120 C 1008.3512752 120 1013.5 125.1487248 1013.5 131.5 C 1013.5 137.8512752 1008.3512752 143 1002 143 C 995.6487248 143 990.5 137.8512752 990.5 131.5 Z"/></g><g transform="translate(-158,-110) scale(1,1)"><path fill="none" stroke="#000000" d="M 990.5 131.5 C 990.5 125.1487248 995.6487248 120 1002 120 C 1008.3512752 120 1013.5 125.1487248 1013.5 131.5 C 1013.5 137.8512752 1008.3512752 143 1002 143 C 995.6487248 143 990.5 137.8512752 990.5 131.5 Z" stroke-miterlimit="10"/></g><g transform="translate(-158,-110) scale(1,1)"><g><path fill="none" stroke="none"/><text fill="#000000" stroke="none" font-family="Arial" font-size="13px" font-style="normal" font-weight="bold" text-decoration="none" x="967.5" y="162.5">Comparable</text></g></g><g transform="translate(-158,-110) scale(1,1)"><path fill="none" stroke="#ff0000" d="M 966 399 L 852.7894736842105 143" stroke-miterlimit="10"/></g><g transform="translate(-158,-110) scale(1,1)"><path fill="none" stroke="#ff0000" d="M 979 399 L 1001.3684210526316 143" stroke-miterlimit="10"/></g><g transform="translate(-158,-110) scale(1,1)"><rect fill="#C0C0C0" stroke="none" x="1031" y="407" width="92" height="44" opacity="0.2"/></g><g transform="translate(-158,-110) scale(1,1)"><rect fill="#ffffff" stroke="none" x="1024" y="400" width="92" height="44"/></g><g transform="translate(-158,-110) scale(1,1)"><path fill="none" stroke="#000000" d="M 1024 400 L 1116 400 L 1116 444 L 1024 444 L 1024 400 Z Z" stroke-miterlimit="10"/></g><g transform="translate(-158,-110) scale(1,1)"><path fill="none" stroke="#000000" d="M 1024 425 L 1116 425" stroke-miterlimit="10"/></g><g transform="translate(-158,-110) scale(1,1)"><path fill="none" stroke="#000000" d="M 1024 435 L 1116 435" stroke-miterlimit="10"/></g><g transform="translate(-158,-110) scale(1,1)"><g><path fill="none" stroke="none"/><text fill="#000000" stroke="none" font-family="Arial" font-size="13px" font-style="normal" font-weight="bold" text-decoration="none" x="1033" y="419.5">StringBuilder</text></g></g><g transform="translate(-158,-110) scale(1,1)"><rect fill="#C0C0C0" stroke="none" x="1143" y="407" width="84" height="44" opacity="0.2"/></g><g transform="translate(-158,-110) scale(1,1)"><rect fill="#ffffff" stroke="none" x="1136" y="400" width="84" height="44"/></g><g transform="translate(-158,-110) scale(1,1)"><path fill="none" stroke="#000000" d="M 1136 400 L 1220 400 L 1220 444 L 1136 444 L 1136 400 Z Z" stroke-miterlimit="10"/></g><g transform="translate(-158,-110) scale(1,1)"><path fill="none" stroke="#000000" d="M 1136 425 L 1220 425" stroke-miterlimit="10"/></g><g transform="translate(-158,-110) scale(1,1)"><path fill="none" stroke="#000000" d="M 1136 435 L 1220 435" stroke-miterlimit="10"/></g><g transform="translate(-158,-110) scale(1,1)"><g><path fill="none" stroke="none"/><text fill="#000000" stroke="none" font-family="Arial" font-size="13px" font-style="normal" font-weight="bold" text-decoration="none" x="1143.5" y="419.5">StringBuffer</text></g></g><g transform="translate(-158,-110) scale(1,1)"><rect fill="#C0C0C0" stroke="none" x="1055" y="295" width="143" height="44" opacity="0.2"/></g><g transform="translate(-158,-110) scale(1,1)"><rect fill="#ffffff" stroke="none" x="1048" y="288" width="143" height="44"/></g><g transform="translate(-158,-110) scale(1,1)"><path fill="none" stroke="#000000" d="M 1048 288 L 1191 288 L 1191 332 L 1048 332 L 1048 288 Z Z" stroke-miterlimit="10"/></g><g transform="translate(-158,-110) scale(1,1)"><path fill="none" stroke="#000000" d="M 1048 313 L 1191 313" stroke-miterlimit="10"/></g><g transform="translate(-158,-110) scale(1,1)"><path fill="none" stroke="#000000" d="M 1048 323 L 1191 323" stroke-miterlimit="10"/></g><g transform="translate(-158,-110) scale(1,1)"><g><path fill="none" stroke="none"/><text fill="#000000" stroke="none" font-family="Arial" font-size="13px" font-style="italic" font-weight="bold" text-decoration="none" x="1058" y="307.5">AbstractStringBuilder</text></g></g><g transform="translate(-158,-110) scale(1,1)"><path fill="none" stroke="#ff0000" d="M 1047 293 L 437 136.88235294117646" stroke-miterlimit="10"/></g><g transform="translate(-158,-110) scale(1,1)"><path fill="none" stroke="#ff0000" d="M 1059 287 L 701 139.37209302325581" stroke-miterlimit="10"/></g><g transform="translate(-158,-110) scale(1,1)"><path fill="none" stroke="#000000" d="M 1080 399 L 1109 333" stroke-miterlimit="10"/></g><g transform="translate(-158,-110) scale(1,1)"><path fill="#FFFFFF" stroke="none" d="M 1108.5314371718941 354.995009635736 L 1109 333 L 1093.1158555811421 348.2214965125267"/></g><g transform="translate(-158,-110) scale(1,1)"><path fill="none" stroke="#000000" d="M 1108.5314371718941 354.995009635736 L 1109 333 L 1093.1158555811421 348.2214965125267 L 1108.5314371718941 354.995009635736" stroke-miterlimit="10"/></g><g transform="translate(-158,-110) scale(1,1)"><path fill="none" stroke="#000000" d="M 1166 399 L 1131 333" stroke-miterlimit="10"/></g><g transform="translate(-158,-110) scale(1,1)"><path fill="#FFFFFF" stroke="none" d="M 1147.9603786057692 347.01233590622815 L 1131 333 L 1133.084580984073 354.9010164631882"/></g><g transform="translate(-158,-110) scale(1,1)"><path fill="none" stroke="#000000" d="M 1147.9603786057692 347.01233590622815 L 1131 333 L 1133.084580984073 354.9010164631882 L 1147.9603786057692 347.01233590622815" stroke-miterlimit="10"/></g><g transform="translate(-158,-110) scale(1,1)"><path fill="none" stroke="#ff0000" d="M 1023 402 L 437 139.23529411764707" stroke-miterlimit="10"/></g><g transform="translate(-158,-110) scale(1,1)"><path fill="none" stroke="#ff0000" d="M 1052 399 L 855.3157894736842 143" stroke-miterlimit="10"/></g><g transform="translate(-158,-110) scale(1,1)"><path fill="none" stroke="#ff0000" d="M 1135 406 L 437 138.52941176470588" stroke-miterlimit="10"/></g><g transform="translate(-158,-110) scale(1,1)"><path fill="none" stroke="#ff0000" d="M 1151 399 L 858.4736842105264 143" stroke-miterlimit="10"/></g><g transform="translate(-158,-110) scale(1,1)"><path fill="none" stroke="#000000" d="M 831 295 L 476 163" stroke-miterlimit="10"/></g><g transform="translate(-158,-110) scale(1,1)"><path fill="#FFFFFF" stroke="none" d="M 497.9851781099292 162.19256983293346 L 476 163 L 492.11680787359234 177.97492918065765"/></g><g transform="translate(-158,-110) scale(1,1)"><path fill="none" stroke="#000000" d="M 497.9851781099292 162.19256983293346 L 476 163 L 492.11680787359234 177.97492918065765 L 497.9851781099292 162.19256983293346" stroke-miterlimit="10"/></g><g transform="translate(-158,-110) scale(1,1)"><rect fill="#C0C0C0" stroke="none" x="455" y="407" width="102" height="44" opacity="0.2"/></g><g transform="translate(-158,-110) scale(1,1)"><rect fill="#ffffff" stroke="none" x="448" y="400" width="102" height="44"/></g><g transform="translate(-158,-110) scale(1,1)"><path fill="none" stroke="#000000" d="M 448 400 L 550 400 L 550 444 L 448 444 L 448 400 Z Z" stroke-miterlimit="10"/></g><g transform="translate(-158,-110) scale(1,1)"><path fill="none" stroke="#000000" d="M 448 425 L 550 425" stroke-miterlimit="10"/></g><g transform="translate(-158,-110) scale(1,1)"><path fill="none" stroke="#000000" d="M 448 435 L 550 435" stroke-miterlimit="10"/></g><g transform="translate(-158,-110) scale(1,1)"><g><path fill="none" stroke="none"/><text fill="#000000" stroke="none" font-family="Arial" font-size="13px" font-style="normal" font-weight="bold" text-decoration="none" x="456.5" y="419.5">SpannedString</text></g></g><g transform="translate(-158,-110) scale(1,1)"><path fill="none" stroke="#000000" d="M 498 399 L 490.3157894736842 223" stroke-miterlimit="10"/></g><g transform="translate(-158,-110) scale(1,1)"><path fill="none" stroke="#000000" d="M 493 399 L 427.2105263157895 143" stroke-miterlimit="10"/></g><g transform="translate(-158,-110) scale(1,1)"><path fill="none" stroke="#000000" d="M 465 399 L 213.67567567567568 223" stroke-miterlimit="10"/></g><g transform="translate(-158,-110) scale(1,1)"><path fill="none" stroke="#000000" d="M 533 445 L 630 511" stroke-miterlimit="10"/></g><g transform="translate(-158,-110) scale(1,1)"><path fill="#FFFFFF" stroke="none" d="M 608.4595819110261 506.52670272034067 L 630 511 L 617.9317231404036 492.60552545898275"/></g><g transform="translate(-158,-110) scale(1,1)"><path fill="none" stroke="#000000" d="M 608.4595819110261 506.52670272034067 L 630 511 L 617.9317231404036 492.60552545898275 L 608.4595819110261 506.52670272034067" stroke-miterlimit="10"/></g></g></svg>