<svg version="1.1" xmlns="http://www.w3.org/2000/svg" xmlns:xlink="http://www.w3.org/1999/xlink" width="992" height="456"><defs/><g><g transform="translate(-158,-110) scale(1,1)"><path fill="#C0C0C0" stroke="none" d="M 453 138.5 C 453 132.1487248 458.1487248 127 464.5 127 C 470.8512752 127 476 132.1487248 476 138.5 C 476 144.8512752 470.8512752 150 464.5 150 C 458.1487248 150 453 144.8512752 453 138.5 Z" opacity="0.2"/></g><g transform="translate(-158,-110) scale(1,1)"><path fill="#ffffff" stroke="none" d="M 446 131.5 C 446 125.1487248 451.1487248 120 457.5 120 C 463.8512752 120 469 125.1487248 469 131.5 C 469 137.8512752 463.8512752 143 457.5 143 C 451.1487248 143 446 137.8512752 446 131.5 Z"/></g><g transform="translate(-158,-110) scale(1,1)"><path fill="none" stroke="#000000" d="M 446 131.5 C 446 125.1487248 451.1487248 120 457.5 120 C 463.8512752 120 469 125.1487248 469 131.5 C 469 137.8512752 463.8512752 143 457.5 143 C 451.1487248 143 446 137.8512752 446 131.5 Z" stroke-miterlimit="10"/></g><g transform="translate(-158,-110) scale(1,1)"><g><path fill="none" stroke="none"/><text fill="#000000" stroke="none" font-family="Arial" font-size="13px" font-style="normal" font-weight="bold" text-decoration="none" x="415" y="162.5">CharSequence</text></g></g><g transform="translate(-158,-110) scale(1,1)"><path fill="#C0C0C0" stroke="none" d="M 198 218.5 C 198 212.1487248 203.1487248 207 209.5 207 C 215.8512752 207 221 212.1487248 221 218.5 C 221 224.8512752 215.8512752 230 209.5 230 C 203.1487248 230 198 224.8512752 198 218.5 Z" opacity="0.2"/></g><g transform="translate(-158,-110) scale(1,1)"><path fill="#ffffff" stroke="none" d="M 191 211.5 C 191 205.1487248 196.1487248 200 202.5 200 C 208.8512752 200 214 205.1487248 214 211.5 C 214 217.8512752 208.8512752 223 202.5 223 C 196.1487248 223 191 217.8512752 191 211.5 Z"/></g><g transform="translate(-158,-110) scale(1,1)"><path fill="none" stroke="#000000" d="M 191 211.5 C 191 205.1487248 196.1487248 200 202.5 200 C 208.8512752 200 214 205.1487248 214 211.5 C 214 217.8512752 208.8512752 223 202.5 223 C 196.1487248 223 191 217.8512752 191 211.5 Z" stroke-miterlimit="10"/></g><g transform="translate(-158,-110) scale(1,1)"><g><path fill="none" stroke="none"/><text fill="#000000" stroke="none" font-family="Arial" font-size="13px" font-style="normal" font-weight="bold" text-decoration="none" x="175" y="242.5">GetChars</text></g></g><g transform="translate(-158,-110) scale(1,1)"><path fill="none" stroke="#000000" d="M 238 213 L 407 160" stroke-miterlimit="10"/></g><g transform="translate(-158,-110) scale(1,1)"><path fill="#FFFFFF" stroke="none" d="M 390.1253025726343 174.11540246450159 L 407 160 L 385.08669021681214 158.0488838204649"/></g><g transform="translate(-158,-110) scale(1,1)"><path fill="none" stroke="#000000" d="M 390.1253025726343 174.11540246450159 L 407 160 L 385.08669021681214 158.0488838204649 L 390.1253025726343 174.11540246450159" stroke-miterlimit="10"/></g><g transform="translate(-158,-110) scale(1,1)"><rect fill="#C0C0C0" stroke="none" x="175" y="303" width="143" height="44" opacity="0.2"/></g><g transform="translate(-158,-110) scale(1,1)"><rect fill="#ffffff" stroke="none" x="168" y="296" width="143" height="44"/></g><g transform="translate(-158,-110) scale(1,1)"><path fill="none" stroke="#000000" d="M 168 296 L 311 296 L 311 340 L 168 340 L 168 296 Z Z" stroke-miterlimit="10"/></g><g transform="translate(-158,-110) scale(1,1)"><path fill="none" stroke="#000000" d="M 168 321 L 311 321" stroke-miterlimit="10"/></g><g transform="translate(-158,-110) scale(1,1)"><path fill="none" stroke="#000000" d="M 168 331 L 311 331" stroke-miterlimit="10"/></g><g transform="translate(-158,-110) scale(1,1)"><g><path fill="none" stroke="none"/><text fill="#000000" stroke="none" font-family="Arial" font-size="13px" font-style="normal" font-weight="bold" text-decoration="none" x="176.5" y="315.5">AlteredCharSequence</text></g></g><g transform="translate(-158,-110) scale(1,1)"><path fill="none" stroke="#ff0000" d="M 230 295 L 205.1578947368421 223" stroke-miterlimit="10"/></g><g transform="translate(-158,-110) scale(1,1)"><path fill="#C0C0C0" stroke="none" d="M 510 218.5 C 510 212.1487248 515.1487248 207 521.5 207 C 527.8512752 207 533 212.1487248 533 218.5 C 533 224.8512752 527.8512752 230 521.5 230 C 515.1487248 230 510 224.8512752 510 218.5 Z" opacity="0.2"/></g><g transform="translate(-158,-110) scale(1,1)"><path fill="#ffffff" stroke="none" d="M 503 211.5 C 503 205.1487248 508.1487248 200 514.5 200 C 520.8512752 200 526 205.1487248 526 211.5 C 526 217.8512752 520.8512752 223 514.5 223 C 508.1487248 223 503 217.8512752 503 211.5 Z"/></g><g transform="translate(-158,-110) scale(1,1)"><path fill="none" stroke="#000000" d="M 503 211.5 C 503 205.1487248 508.1487248 200 514.5 200 C 520.8512752 200 526 205.1487248 526 211.5 C 526 217.8512752 520.8512752 223 514.5 223 C 508.1487248 223 503 217.8512752 503 211.5 Z" stroke-miterlimit="10"/></g><g transform="translate(-158,-110) scale(1,1)"><g><path fill="none" stroke="none"/><text fill="#000000" stroke="none" font-family="Arial" font-size="13px" font-style="normal" font-weight="bold" text-decoration="none" x="489" y="242.5">Spanned</text></g></g><g transform="translate(-158,-110) scale(1,1)"><path fill="none" stroke="#000000" d="M 496 199 L 475 169" stroke-miterlimit="10"/></g><g transform="translate(-158,-110) scale(1,1)"><path fill="#FFFFFF" stroke="none" d="M 493.55296532915077 180.82317544043605 L 475 169 L 479.75868006627087 190.47917512445198"/></g><g transform="translate(-158,-110) scale(1,1)"><path fill="none" stroke="#000000" d="M 493.55296532915077 180.82317544043605 L 475 169 L 479.75868006627087 190.47917512445198 L 493.55296532915077 180.82317544043605" stroke-miterlimit="10"/></g><g transform="translate(-158,-110) scale(1,1)"><rect fill="#C0C0C0" stroke="none" x="175" y="407" width="246" height="44" opacity="0.2"/></g><g transform="translate(-158,-110) scale(1,1)"><rect fill="#ffffff" stroke="none" x="168" y="400" width="246" height="44"/></g><g transform="translate(-158,-110) scale(1,1)"><path fill="none" stroke="#000000" d="M 168 400 L 414 400 L 414 444 L 168 444 L 168 400 Z Z" stroke-miterlimit="10"/></g><g transform="translate(-158,-110) scale(1,1)"><path fill="none" stroke="#000000" d="M 168 425 L 414 425" stroke-miterlimit="10"/></g><g transform="translate(-158,-110) scale(1,1)"><path fill="none" stroke="#000000" d="M 168 435 L 414 435" stroke-miterlimit="10"/></g><g transform="translate(-158,-110) scale(1,1)"><g><path fill="none" stroke="none"/><text fill="#000000" stroke="none" font-family="Arial" font-size="13px" font-style="normal" font-weight="bold" text-decoration="none" x="180" y="419.5">AlteredCharSequence.AlteredSpanned</text></g></g><g transform="translate(-158,-110) scale(1,1)"><path fill="none" stroke="#000000" d="M 280 399 L 251 341" stroke-miterlimit="10"/></g><g transform="translate(-158,-110) scale(1,1)"><path fill="#FFFFFF" stroke="none" d="M 267.6199870099055 355.41443830992284 L 251 341 L 252.55955844199494 362.9446525938781"/></g><g transform="translate(-158,-110) scale(1,1)"><path fill="none" stroke="#000000" d="M 267.6199870099055 355.41443830992284 L 251 341 L 252.55955844199494 362.9446525938781 L 267.6199870099055 355.41443830992284" stroke-miterlimit="10"/></g><g transform="translate(-158,-110) scale(1,1)"><path fill="none" stroke="#ff0000" d="M 317 399 L 505.1578947368421 223" stroke-miterlimit="10"/></g><g transform="translate(-158,-110) scale(1,1)"><path fill="#C0C0C0" stroke="none" d="M 513 314.5 C 513 308.1487248 518.1487248 303 524.5 303 C 530.8512752 303 536 308.1487248 536 314.5 C 536 320.8512752 530.8512752 326 524.5 326 C 518.1487248 326 513 320.8512752 513 314.5 Z" opacity="0.2"/></g><g transform="translate(-158,-110) scale(1,1)"><path fill="#ffffff" stroke="none" d="M 506 307.5 C 506 301.1487248 511.1487248 296 517.5 296 C 523.8512752 296 529 301.1487248 529 307.5 C 529 313.8512752 523.8512752 319 517.5 319 C 511.1487248 319 506 313.8512752 506 307.5 Z"/></g><g transform="translate(-158,-110) scale(1,1)"><path fill="none" stroke="#000000" d="M 506 307.5 C 506 301.1487248 511.1487248 296 517.5 296 C 523.8512752 296 529 301.1487248 529 307.5 C 529 313.8512752 523.8512752 319 517.5 319 C 511.1487248 319 506 313.8512752 506 307.5 Z" stroke-miterlimit="10"/></g><g transform="translate(-158,-110) scale(1,1)"><g><path fill="none" stroke="none"/><text fill="#000000" stroke="none" font-family="Arial" font-size="13px" font-style="normal" font-weight="bold" text-decoration="none" x="487" y="338.5">Spannable</text></g></g><g transform="translate(-158,-110) scale(1,1)"><path fill="none" stroke="#000000" d="M 516 295 L 515 249" stroke-miterlimit="10"/></g><g transform="translate(-158,-110) scale(1,1)"><path fill="#FFFFFF" stroke="none" d="M 523.8587978991541 269.1375693613192 L 515 249 L 507.0247042156497 269.5035279196563"/></g><g transform="translate(-158,-110) scale(1,1)"><path fill="none" stroke="#000000" d="M 523.8587978991541 269.1375693613192 L 515 249 L 507.0247042156497 269.5035279196563 L 523.8587978991541 269.1375693613192" stroke-miterlimit="10"/></g><g transform="translate(-158,-110) scale(1,1)"><rect fill="#C0C0C0" stroke="none" x="351" y="303" width="125" height="44" opacity="0.2"/></g><g transform="translate(-158,-110) scale(1,1)"><rect fill="#ffffff" stroke="none" x="344" y="296" width="125" height="44"/></g><g transform="translate(-158,-110) scale(1,1)"><path fill="none" stroke="#000000" d="M 344 296 L 469 296 L 469 340 L 344 340 L 344 296 Z Z" stroke-miterlimit="10"/></g><g transform="translate(-158,-110) scale(1,1)"><path fill="none" stroke="#000000" d="M 344 321 L 469 321" stroke-miterlimit="10"/></g><g transform="translate(-158,-110) scale(1,1)"><path fill="none" stroke="#000000" d="M 344 331 L 469 331" stroke-miterlimit="10"/></g><g transform="translate(-158,-110) scale(1,1)"><g><path fill="none" stroke="none"/><text fill="#000000" stroke="none" font-family="Arial" font-size="13px" font-style="normal" font-weight="bold" text-decoration="none" x="352" y="315.5">Spannable.Factory</text></g></g><g transform="translate(-158,-110) scale(1,1)"><rect fill="#C0C0C0" stroke="none" x="487" y="407" width="113" height="44" opacity="0.2"/></g><g transform="translate(-158,-110) scale(1,1)"><rect fill="#ffffff" stroke="none" x="480" y="400" width="113" height="44"/></g><g transform="translate(-158,-110) scale(1,1)"><path fill="none" stroke="#000000" d="M 480 400 L 593 400 L 593 444 L 480 444 L 480 400 Z Z" stroke-miterlimit="10"/></g><g transform="translate(-158,-110) scale(1,1)"><path fill="none" stroke="#000000" d="M 480 425 L 593 425" stroke-miterlimit="10"/></g><g transform="translate(-158,-110) scale(1,1)"><path fill="none" stroke="#000000" d="M 480 435 L 593 435" stroke-miterlimit="10"/></g><g transform="translate(-158,-110) scale(1,1)"><g><path fill="none" stroke="none"/><text fill="#000000" stroke="none" font-family="Arial" font-size="13px" font-style="normal" font-weight="bold" text-decoration="none" x="489" y="419.5">SpannableString</text></g></g><g transform="translate(-158,-110) scale(1,1)"><path fill="none" stroke="#ff0000" d="M 532 399 L 518.578947368421 319" stroke-miterlimit="10"/></g><g transform="translate(-158,-110) scale(1,1)"><path fill="none" stroke="#ff0000" d="M 497 399 L 214 222.33333333333334" stroke-miterlimit="10"/></g><g transform="translate(-158,-110) scale(1,1)"><path fill="none" stroke="#ff0000" d="M 529 399 L 459.2105263157895 143" stroke-miterlimit="10"/></g><g transform="translate(-158,-110) scale(1,1)"><rect fill="#C0C0C0" stroke="none" x="487" y="519" width="160" height="44" opacity="0.2"/></g><g transform="translate(-158,-110) scale(1,1)"><rect fill="#ffffff" stroke="none" x="480" y="512" width="160" height="44"/></g><g transform="translate(-158,-110) scale(1,1)"><path fill="none" stroke="#000000" d="M 480 512 L 640 512 L 640 556 L 480 556 L 480 512 Z Z" stroke-miterlimit="10"/></g><g transform="translate(-158,-110) scale(1,1)"><path fill="none" stroke="#000000" d="M 480 537 L 640 537" stroke-miterlimit="10"/></g><g transform="translate(-158,-110) scale(1,1)"><path fill="none" stroke="#000000" d="M 480 547 L 640 547" stroke-miterlimit="10"/></g><g transform="translate(-158,-110) scale(1,1)"><g><path fill="none" stroke="none"/><text fill="#000000" stroke="none" font-family="Arial" font-size="13px" font-style="normal" font-weight="bold" text-decoration="none" x="491" y="531.5">SpannableStringInternal</text></g></g><g transform="translate(-158,-110) scale(1,1)"><path fill="none" stroke="#000000" d="M 541 445 L 555 511" stroke-miterlimit="10"/></g><g transform="translate(-158,-110) scale(1,1)"><path fill="#FFFFFF" stroke="none" d="M 542.5466165594786 492.8640346029403 L 555 511 L 559.0181922361165 489.3700640048656"/></g><g transform="translate(-158,-110) scale(1,1)"><path fill="none" stroke="#000000" d="M 542.5466165594786 492.8640346029403 L 555 511 L 559.0181922361165 489.3700640048656 L 542.5466165594786 492.8640346029403" stroke-miterlimit="10"/></g><g transform="translate(-158,-110) scale(1,1)"><rect fill="#C0C0C0" stroke="none" x="671" y="407" width="158" height="44" opacity="0.2"/></g><g transform="translate(-158,-110) scale(1,1)"><rect fill="#ffffff" stroke="none" x="664" y="400" width="158" height="44"/></g><g transform="translate(-158,-110) scale(1,1)"><path fill="none" stroke="#000000" d="M 664 400 L 822 400 L 822 444 L 664 444 L 664 400 Z Z" stroke-miterlimit="10"/></g><g transform="translate(-158,-110) scale(1,1)"><path fill="none" stroke="#000000" d="M 664 425 L 822 425" stroke-miterlimit="10"/></g><g transform="translate(-158,-110) scale(1,1)"><path fill="none" stroke="#000000" d="M 664 435 L 822 435" stroke-miterlimit="10"/></g><g transform="translate(-158,-110) scale(1,1)"><g><path fill="none" stroke="none"/><text fill="#000000" stroke="none" font-family="Arial" font-size="13px" font-style="normal" font-weight="bold" text-decoration="none" x="675.5" y="419.5">SpannableStringBuilder</text></g></g><g transform="translate(-158,-110) scale(1,1)"><path fill="none" stroke="#ff0000" d="M 692 399 L 529 316.53846153846155" stroke-miterlimit="10"/></g><g transform="translate(-158,-110) scale(1,1)"><path fill="none" stroke="#ff0000" d="M 719 399 L 465.2105263157895 143" stroke-miterlimit="10"/></g><g transform="translate(-158,-110) scale(1,1)"><path fill="none" stroke="#ff0000" d="M 680 399 L 214 219.66666666666666" stroke-miterlimit="10"/></g><g transform="translate(-158,-110) scale(1,1)"><path fill="#C0C0C0" stroke="none" d="M 662 314.5 C 662 308.1487248 667.1487248 303 673.5 303 C 679.8512752 303 685 308.1487248 685 314.5 C 685 320.8512752 679.8512752 326 673.5 326 C 667.1487248 326 662 320.8512752 662 314.5 Z" opacity="0.2"/></g><g transform="translate(-158,-110) scale(1,1)"><path fill="#ffffff" stroke="none" d="M 655 307.5 C 655 301.1487248 660.1487248 296 666.5 296 C 672.8512752 296 678 301.1487248 678 307.5 C 678 313.8512752 672.8512752 319 666.5 319 C 660.1487248 319 655 313.8512752 655 307.5 Z"/></g><g transform="translate(-158,-110) scale(1,1)"><path fill="none" stroke="#000000" d="M 655 307.5 C 655 301.1487248 660.1487248 296 666.5 296 C 672.8512752 296 678 301.1487248 678 307.5 C 678 313.8512752 672.8512752 319 666.5 319 C 660.1487248 319 655 313.8512752 655 307.5 Z" stroke-miterlimit="10"/></g><g transform="translate(-158,-110) scale(1,1)"><g><path fill="none" stroke="none"/><text fill="#000000" stroke="none" font-family="Arial" font-size="13px" font-style="normal" font-weight="bold" text-decoration="none" x="643" y="338.5">Editable</text></g></g><g transform="translate(-158,-110) scale(1,1)"><path fill="none" stroke="#000000" d="M 631 320 L 556 320" stroke-miterlimit="10"/></g><g transform="translate(-158,-110) scale(1,1)"><path fill="#FFFFFF" stroke="none" d="M 576.3253497152483 311.580964487968 L 556 320 L 576.3253497152483 328.419035512032"/></g><g transform="translate(-158,-110) scale(1,1)"><path fill="none" stroke="#000000" d="M 576.3253497152483 311.580964487968 L 556 320 L 576.3253497152483 328.419035512032 L 576.3253497152483 311.580964487968" stroke-miterlimit="10"/></g><g transform="translate(-158,-110) scale(1,1)"><path fill="none" stroke="#000000" d="M 631 313 L 238 231" stroke-miterlimit="10"/></g><g transform="translate(-158,-110) scale(1,1)"><path fill="#FFFFFF" stroke="none" d="M 259.6164652180896 226.90995947756954 L 238 231 L 256.1772445297326 243.39305375225595"/></g><g transform="translate(-158,-110) scale(1,1)"><path fill="none" stroke="#000000" d="M 259.6164652180896 226.90995947756954 L 238 231 L 256.1772445297326 243.39305375225595 L 259.6164652180896 226.90995947756954" stroke-miterlimit="10"/></g><g transform="translate(-158,-110) scale(1,1)"><path fill="none" stroke="#000000" d="M 636 295 L 487 169" stroke-miterlimit="10"/></g><g transform="translate(-158,-110) scale(1,1)"><path fill="#FFFFFF" stroke="none" d="M 507.95631979864663 175.6957195652784 L 487 169 L 497.0837671288051 188.55294454786872"/></g><g transform="translate(-158,-110) scale(1,1)"><path fill="none" stroke="#000000" d="M 507.95631979864663 175.6957195652784 L 487 169 L 497.0837671288051 188.55294454786872 L 507.95631979864663 175.6957195652784" stroke-miterlimit="10"/></g><g transform="translate(-158,-110) scale(1,1)"><path fill="#C0C0C0" stroke="none" d="M 685 138.5 C 685 132.1487248 690.1487248 127 696.5 127 C 702.8512752 127 708 132.1487248 708 138.5 C 708 144.8512752 702.8512752 150 696.5 150 C 690.1487248 150 685 144.8512752 685 138.5 Z" opacity="0.2"/></g><g transform="translate(-158,-110) scale(1,1)"><path fill="#ffffff" stroke="none" d="M 678 131.5 C 678 125.1487248 683.1487248 120 689.5 120 C 695.8512752 120 701 125.1487248 701 131.5 C 701 137.8512752 695.8512752 143 689.5 143 C 683.1487248 143 678 137.8512752 678 131.5 Z"/></g><g transform="translate(-158,-110) scale(1,1)"><path fill="none" stroke="#000000" d="M 678 131.5 C 678 125.1487248 683.1487248 120 689.5 120 C 695.8512752 120 701 125.1487248 701 131.5 C 701 137.8512752 695.8512752 143 689.5 143 C 683.1487248 143 678 137.8512752 678 131.5 Z" stroke-miterlimit="10"/></g><g transform="translate(-158,-110) scale(1,1)"><g><path fill="none" stroke="none"/><text fill="#000000" stroke="none" font-family="Arial" font-size="13px" font-style="normal" font-weight="bold" text-decoration="none" x="655.5" y="162.5">Appendable</text></g></g><g transform="translate(-158,-110) scale(1,1)"><path fill="none" stroke="#000000" d="M 669 295 L 686 169" stroke-miterlimit="10"/></g><g transform="translate(-158,-110) scale(1,1)"><path fill="#FFFFFF" stroke="none" d="M 691.6257529368005 190.26854258979867 L 686 169 L 674.9388773596902 188.01713874209332"/></g><g transform="translate(-158,-110) scale(1,1)"><path fill="none" stroke="#000000" d="M 691.6257529368005 190.26854258979867 L 686 169 L 674.9388773596902 188.01713874209332 L 691.6257529368005 190.26854258979867" stroke-miterlimit="10"/></g><g transform="translate(-158,-110) scale(1,1)"><path fill="#C0C0C0" stroke="none" d="M 850.5 138.5 C 850.5 132.1487248 855.6487248 127 862 127 C 868.3512752 127 873.5 132.1487248 873.5 138.5 C 873.5 144.8512752 868.3512752 150 862 150 C 855.6487248 150 850.5 144.8512752 850.5 138.5 Z" opacity="0.2"/></g><g transform="translate(-158,-110) scale(1,1)"><path fill="#ffffff" stroke="none" d="M 843.5 131.5 C 843.5 125.1487248 848.6487248 120 855 120 C 861.3512752 120 866.5 125.1487248 866.5 131.5 C 866.5 137.8512752 861.3512752 143 855 143 C 848.6487248 143 843.5 137.8512752 843.5 131.5 Z"/></g><g transform="translate(-158,-110) scale(1,1)"><path fill="none" stroke="#000000" d="M 843.5 131.5 C 843.5 125.1487248 848.6487248 120 855 120 C 861.3512752 120 866.5 125.1487248 866.5 131.5 C 866.5 137.8512752 861.3512752 143 855 143 C 848.6487248 143 843.5 137.8512752 843.5 131.5 Z" stroke-miterlimit="10"/></g><g transform="translate(-158,-110) scale(1,1)"><g><path fill="none" stroke="none"/><text fill="#000000" stroke="none" font-family="Arial" font-size="13px" font-style="normal" font-weight="bold" text-decoration="none" x="801" y="162.5">GraphicOperations</text></g></g><g transform="translate(-158,-110) scale(1,1)"><path fill="none" stroke="#ff0000" d="M 726 399 L 672 319" stroke-miterlimit="10"/></g><g transform="translate(-158,-110) scale(1,1)"><path fill="none" stroke="#ff0000" d="M 739 399 L 690.578947368421 143" stroke-miterlimit="10"/></g><g transform="translate(-158,-110) scale(1,1)"><path fill="none" stroke="#ff0000" d="M 752 399 L 851.8421052631579 143" stroke-miterlimit="10"/></g><g transform="translate(-158,-110) scale(1,1)"><rect fill="#C0C0C0" stroke="none" x="871" y="407" width="50" height="44" opacity="0.2"/></g><g transform="translate(-158,-110) scale(1,1)"><rect fill="#ffffff" stroke="none" x="864" y="400" width="50" height="44"/></g><g transform="translate(-158,-110) scale(1,1)"><path fill="none" stroke="#000000" d="M 864 400 L 914 400 L 914 444 L 864 444 L 864 400 Z Z" stroke-miterlimit="10"/></g><g transform="translate(-158,-110) scale(1,1)"><path fill="none" stroke="#000000" d="M 864 425 L 914 425" stroke-miterlimit="10"/></g><g transform="translate(-158,-110) scale(1,1)"><path fill="none" stroke="#000000" d="M 864 435 L 914 435" stroke-miterlimit="10"/></g><g transform="translate(-158,-110) scale(1,1)"><g><path fill="none" stroke="none"/><text fill="#000000" stroke="none" font-family="Arial" font-size="13px" font-style="normal" font-weight="bold" text-decoration="none" x="872" y="419.5">String</text></g></g><g transform="translate(-158,-110) scale(1,1)"><path fill="none" stroke="#ff0000" d="M 863 405 L 469 142.69230769230768" stroke-miterlimit="10"/></g><g transform="translate(-158,-110) scale(1,1)"><path fill="#C0C0C0" stroke="none" d="M 980.5 138.5 C 980.5 132.1487248 985.6487248 127 992 127 C 998.3512752 127 1003.5 132.1487248 1003.5 138.5 C 1003.5 144.8512752 998.3512752 150 992 150 C 985.6487248 150 980.5 144.8512752 980.5 138.5 Z" opacity="0.2"/></g><g transform="translate(-158,-110) scale(1,1)"><path fill="#ffffff" stroke="none" d="M 973.5 131.5 C 973.5 125.1487248 978.6487248 120 985 120 C 991.3512752 120 996.5 125.1487248 996.5 131.5 C 996.5 137.8512752 991.3512752 143 985 143 C 978.6487248 143 973.5 137.8512752 973.5 131.5 Z"/></g><g transform="translate(-158,-110) scale(1,1)"><path fill="none" stroke="#000000" d="M 973.5 131.5 C 973.5 125.1487248 978.6487248 120 985 120 C 991.3512752 120 996.5 125.1487248 996.5 131.5 C 996.5 137.8512752 991.3512752 143 985 143 C 978.6487248 143 973.5 137.8512752 973.5 131.5 Z" stroke-miterlimit="10"/></g><g transform="translate(-158,-110) scale(1,1)"><g><path fill="none" stroke="none"/><text fill="#000000" stroke="none" font-family="Arial" font-size="13px" font-style="normal" font-weight="bold" text-decoration="none" x="951.5" y="162.5">Serializable</text></g></g><g transform="translate(-158,-110) scale(1,1)"><path fill="#C0C0C0" stroke="none" d="M 1093.5 138.5 C 1093.5 132.1487248 1098.6487248 127 1105 127 C 1111.3512752 127 1116.5 132.1487248 1116.5 138.5 C 1116.5 144.8512752 1111.3512752 150 1105 150 C 1098.6487248 150 1093.5 144.8512752 1093.5 138.5 Z" opacity="0.2"/></g><g transform="translate(-158,-110) scale(1,1)"><path fill="#ffffff" stroke="none" d="M 1086.5 131.5 C 1086.5 125.1487248 1091.6487248 120 1098 120 C 1104.3512752 120 1109.5 125.1487248 1109.5 131.5 C 1109.5 137.8512752 1104.3512752 143 1098 143 C 1091.6487248 143 1086.5 137.8512752 1086.5 131.5 Z"/></g><g transform="translate(-158,-110) scale(1,1)"><path fill="none" stroke="#000000" d="M 1086.5 131.5 C 1086.5 125.1487248 1091.6487248 120 1098 120 C 1104.3512752 120 1109.5 125.1487248 1109.5 131.5 C 1109.5 137.8512752 1104.3512752 143 1098 143 C 1091.6487248 143 1086.5 137.8512752 1086.5 131.5 Z" stroke-miterlimit="10"/></g><g transform="translate(-158,-110) scale(1,1)"><g><path fill="none" stroke="none"/><text fill="#000000" stroke="none" font-family="Arial" font-size="13px" font-style="normal" font-weight="bold" text-decoration="none" x="1063.5" y="162.5">Comparable</text></g></g><g transform="translate(-158,-110) scale(1,1)"><path fill="none" stroke="#ff0000" d="M 897 399 L 982.1578947368421 143" stroke-miterlimit="10"/></g><g transform="translate(-158,-110) scale(1,1)"><path fill="none" stroke="#ff0000" d="M 906 399 L 1092 143" stroke-miterlimit="10"/></g><g transform="translate(-158,-110) scale(1,1)"><rect fill="#C0C0C0" stroke="none" x="943" y="407" width="92" height="44" opacity="0.2"/></g><g transform="translate(-158,-110) scale(1,1)"><rect fill="#ffffff" stroke="none" x="936" y="400" width="92" height="44"/></g><g transform="translate(-158,-110) scale(1,1)"><path fill="none" stroke="#000000" d="M 936 400 L 1028 400 L 1028 444 L 936 444 L 936 400 Z Z" stroke-miterlimit="10"/></g><g transform="translate(-158,-110) scale(1,1)"><path fill="none" stroke="#000000" d="M 936 425 L 1028 425" stroke-miterlimit="10"/></g><g transform="translate(-158,-110) scale(1,1)"><path fill="none" stroke="#000000" d="M 936 435 L 1028 435" stroke-miterlimit="10"/></g><g transform="translate(-158,-110) scale(1,1)"><g><path fill="none" stroke="none"/><text fill="#000000" stroke="none" font-family="Arial" font-size="13px" font-style="normal" font-weight="bold" text-decoration="none" x="945" y="419.5">StringBuilder</text></g></g><g transform="translate(-158,-110) scale(1,1)"><rect fill="#C0C0C0" stroke="none" x="1055" y="407" width="84" height="44" opacity="0.2"/></g><g transform="translate(-158,-110) scale(1,1)"><rect fill="#ffffff" stroke="none" x="1048" y="400" width="84" height="44"/></g><g transform="translate(-158,-110) scale(1,1)"><path fill="none" stroke="#000000" d="M 1048 400 L 1132 400 L 1132 444 L 1048 444 L 1048 400 Z Z" stroke-miterlimit="10"/></g><g transform="translate(-158,-110) scale(1,1)"><path fill="none" stroke="#000000" d="M 1048 425 L 1132 425" stroke-miterlimit="10"/></g><g transform="translate(-158,-110) scale(1,1)"><path fill="none" stroke="#000000" d="M 1048 435 L 1132 435" stroke-miterlimit="10"/></g><g transform="translate(-158,-110) scale(1,1)"><g><path fill="none" stroke="none"/><text fill="#000000" stroke="none" font-family="Arial" font-size="13px" font-style="normal" font-weight="bold" text-decoration="none" x="1055.5" y="419.5">StringBuffer</text></g></g><g transform="translate(-158,-110) scale(1,1)"><rect fill="#C0C0C0" stroke="none" x="951" y="295" width="143" height="44" opacity="0.2"/></g><g transform="translate(-158,-110) scale(1,1)"><rect fill="#ffffff" stroke="none" x="944" y="288" width="143" height="44"/></g><g transform="translate(-158,-110) scale(1,1)"><path fill="none" stroke="#000000" d="M 944 288 L 1087 288 L 1087 332 L 944 332 L 944 288 Z Z" stroke-miterlimit="10"/></g><g transform="translate(-158,-110) scale(1,1)"><path fill="none" stroke="#000000" d="M 944 313 L 1087 313" stroke-miterlimit="10"/></g><g transform="translate(-158,-110) scale(1,1)"><path fill="none" stroke="#000000" d="M 944 323 L 1087 323" stroke-miterlimit="10"/></g><g transform="translate(-158,-110) scale(1,1)"><g><path fill="none" stroke="none"/><text fill="#000000" stroke="none" font-family="Arial" font-size="13px" font-style="italic" font-weight="bold" text-decoration="none" x="954" y="307.5">AbstractStringBuilder</text></g></g><g transform="translate(-158,-110) scale(1,1)"><path fill="none" stroke="#ff0000" d="M 943 289 L 469 137.58823529411765" stroke-miterlimit="10"/></g><g transform="translate(-158,-110) scale(1,1)"><path fill="none" stroke="#ff0000" d="M 970 287 L 701 140.7674418604651" stroke-miterlimit="10"/></g><g transform="translate(-158,-110) scale(1,1)"><path fill="none" stroke="#000000" d="M 989 399 L 1008 333" stroke-miterlimit="10"/></g><g transform="translate(-158,-110) scale(1,1)"><path fill="#FFFFFF" stroke="none" d="M 1010.4675839321585 354.8611763072748 L 1008 333 L 994.2866593199876 350.203031343165"/></g><g transform="translate(-158,-110) scale(1,1)"><path fill="none" stroke="#000000" d="M 1010.4675839321585 354.8611763072748 L 1008 333 L 994.2866593199876 350.203031343165 L 1010.4675839321585 354.8611763072748" stroke-miterlimit="10"/></g><g transform="translate(-158,-110) scale(1,1)"><path fill="none" stroke="#000000" d="M 1075 399 L 1030 333" stroke-miterlimit="10"/></g><g transform="translate(-158,-110) scale(1,1)"><path fill="#FFFFFF" stroke="none" d="M 1048.4060553084248 345.05060695497156 L 1030 333 L 1034.4939806282077 354.536112418756"/></g><g transform="translate(-158,-110) scale(1,1)"><path fill="none" stroke="#000000" d="M 1048.4060553084248 345.05060695497156 L 1030 333 L 1034.4939806282077 354.536112418756 L 1048.4060553084248 345.05060695497156" stroke-miterlimit="10"/></g><g transform="translate(-158,-110) scale(1,1)"><path fill="none" stroke="#ff0000" d="M 939 399 L 469 140.70212765957447" stroke-miterlimit="10"/></g><g transform="translate(-158,-110) scale(1,1)"><path fill="none" stroke="#ff0000" d="M 982 399 L 985 143" stroke-miterlimit="10"/></g><g transform="translate(-158,-110) scale(1,1)"><path fill="none" stroke="#ff0000" d="M 1047 403 L 469 139.23529411764707" stroke-miterlimit="10"/></g><g transform="translate(-158,-110) scale(1,1)"><path fill="none" stroke="#ff0000" d="M 1081 399 L 987.8421052631579 143" stroke-miterlimit="10"/></g></g></svg>